<?xml version="1.0" encoding="utf-8"?>
<!-- Generator: Adobe Illustrator 21.0.0, SVG Export Plug-In . SVG Version: 6.00 Build 0)  -->
<svg version="1.1" id="Livello_1" xmlns="http://www.w3.org/2000/svg" xmlns:xlink="http://www.w3.org/1999/xlink" x="0px" y="0px"
	 viewBox="0 0 275 50" style="enable-background:new 0 0 275 50;" xml:space="preserve">
<style type="text/css">
	.st0{fill:#A08DF3;}
	.st1{fill:#FFFFFF;}
	.st2{fill:#333333;}
	.st3{fill:none;stroke:#FFFFFF;stroke-width:0.5;stroke-linecap:round;stroke-linejoin:round;stroke-miterlimit:10;}
</style>
<g>
	<g>
		<g>
			<path class="st1" d="M97,40.3c-0.1,0.1-0.4,0.1-0.5,0c-4-4.2-6.2-9.6-6.2-15.4c0-5.8,2.2-11.3,6.2-15.4c0.1-0.1,0.4-0.1,0.5,0
				l2.1,2.1c0.1,0.1,0.1,0.4,0,0.5c-3.3,3.5-5.1,8-5.1,12.8c0,4.8,1.8,9.3,5.1,12.8c0.1,0.1,0.1,0.4,0,0.5L97,40.3z"/>
			<path class="st1" d="M127.9,40.3l-2.1-2.1c-0.1-0.1-0.1-0.4,0-0.5c3.3-3.5,5.1-8,5.1-12.8c0-4.8-1.8-9.3-5.1-12.8
				c-0.1-0.1-0.1-0.4,0-0.5l2.1-2.1c0.1-0.1,0.4-0.1,0.5,0c4,4.2,6.2,9.6,6.2,15.4c0,5.8-2.2,11.3-6.2,15.4
				C128.3,40.4,128,40.4,127.9,40.3z"/>
			<path class="st1" d="M105.5,31.8c-1.9-1.9-2.9-4.3-2.9-6.9c0-2.6,1-5.1,2.9-6.9l2.6,2.6c-1.1,1.1-1.8,2.7-1.8,4.3
				c0,1.6,0.6,3.1,1.8,4.3L105.5,31.8z"/>
			<path class="st1" d="M119.1,31.5l-2.1-2.1c-0.1-0.1-0.1-0.4,0-0.5c1-1.1,1.5-2.5,1.5-4c0-1.5-0.5-2.9-1.5-4
				c-0.1-0.1-0.1-0.4,0-0.5l2.1-2.1c0.2-0.2,0.4-0.1,0.5,0c1.7,1.8,2.6,4.2,2.6,6.7c0,2.5-0.9,4.8-2.6,6.7
				C119.5,31.6,119.3,31.7,119.1,31.5z"/>
			<path class="st1" d="M134.2,49.3L89.6,4.7c-0.2-0.2-0.4-0.1-0.5,0c-10.4,12-9.9,30.2,1.3,41.7c0.1,0.1,0.1,0.4,0,0.5L88.3,49
				c-0.1,0.1-0.4,0.1-0.5,0C74.5,35.5,74.6,13.8,88,0.4v0c0.7-0.7,1.9-0.7,2.6,0L135.2,45c0.2,0.2,0.4,0.1,0.5,0
				c4.8-5.6,7.5-12.7,7.5-20.1c0-8.1-3.1-15.8-8.8-21.5c-0.1-0.1-0.1-0.4,0-0.5l2.1-2.1c0.1-0.1,0.4-0.1,0.5,0
				c13.2,13.5,13.1,35.2-0.3,48.6l0,0C136.2,50,135,50,134.2,49.3z"/>
		</g>
		<g>
			<g>
				<path class="st1" d="M164,15.5v12.3c0,0.1-0.1,0.2-0.2,0.2h-1.2c-0.1,0-0.2-0.1-0.2-0.2V12.3c0-0.1,0.1-0.2,0.2-0.2h0.9
					c0.1,0,0.1,0,0.1,0.1l10.1,12.7c0.1,0.1,0.3,0.1,0.3-0.1V12.3c0-0.1,0.1-0.2,0.2-0.2h1.2c0.1,0,0.2,0.1,0.2,0.2v15.5
					c0,0.1-0.1,0.2-0.2,0.2h-1.1c-0.1,0-0.1,0-0.1-0.1l-9.9-12.5C164.3,15.3,164,15.4,164,15.5z"/>
				<path class="st1" d="M197,26.8v1c0,0.1-0.1,0.2-0.2,0.2h-10.2c-0.1,0-0.2-0.1-0.2-0.2V12.3c0-0.1,0.1-0.2,0.2-0.2h10
					c0.1,0,0.2,0.1,0.2,0.2v1c0,0.1-0.1,0.2-0.2,0.2h-8.5c-0.1,0-0.2,0.1-0.2,0.2V19c0,0.1,0.1,0.2,0.2,0.2h7.4
					c0.1,0,0.2,0.1,0.2,0.2v0.9c0,0.1-0.1,0.2-0.2,0.2h-7.4c-0.1,0-0.2,0.1-0.2,0.2v5.7c0,0.1,0.1,0.2,0.2,0.2h8.7
					C196.9,26.6,197,26.7,197,26.8z"/>
				<path class="st1" d="M205.1,27.7l6.4-15.5c0-0.1,0.1-0.1,0.2-0.1h1c0.1,0,0.1,0,0.2,0.1l6.4,15.5c0.1,0.1,0,0.3-0.2,0.3h-1.3
					c-0.1,0-0.1,0-0.2-0.1l-2-4.7c0-0.1-0.1-0.1-0.2-0.1h-6.8c-0.1,0-0.1,0-0.2,0.1l-1.9,4.7c0,0.1-0.1,0.1-0.2,0.1h-1.2
					C205.1,28,205,27.8,205.1,27.7z M212.1,14.3l-3,7.2c-0.1,0.1,0,0.3,0.2,0.3h5.8c0.1,0,0.2-0.1,0.2-0.3l-2.9-7.2
					C212.4,14.2,212.1,14.2,212.1,14.3z"/>
				<path class="st1" d="M228.4,27.8V12.3c0-0.1,0.1-0.2,0.2-0.2h6.5c0.7,0,1.3,0.1,1.9,0.4c0.6,0.3,1.1,0.7,1.5,1.1
					c0.4,0.5,0.7,1,1,1.6c0.2,0.6,0.3,1.2,0.3,1.8c0,0.6-0.1,1.1-0.3,1.7c-0.2,0.5-0.4,1-0.7,1.4c-0.3,0.4-0.7,0.8-1.1,1.1
					c-0.4,0.2-0.8,0.4-1.2,0.5c-0.1,0-0.2,0.2-0.1,0.3l3.6,5.6c0.1,0.1,0,0.3-0.2,0.3h-1.3c-0.1,0-0.1,0-0.2-0.1l-3.6-5.7
					c0-0.1-0.1-0.1-0.2-0.1h-4.4c-0.1,0-0.2,0.1-0.2,0.2v5.5c0,0.1-0.1,0.2-0.2,0.2h-1.2C228.5,28,228.4,27.9,228.4,27.8z M230,20.5
					c0,0.1,0.1,0.2,0.2,0.2h5c0.5,0,0.9-0.1,1.3-0.3c0.4-0.2,0.7-0.5,1-0.8c0.3-0.3,0.5-0.7,0.6-1.2c0.1-0.4,0.2-0.9,0.2-1.4
					c0-0.5-0.1-0.9-0.3-1.4c-0.2-0.4-0.4-0.8-0.7-1.2c-0.3-0.3-0.6-0.6-1-0.8c-0.4-0.2-0.8-0.3-1.2-0.3h-4.9c-0.1,0-0.2,0.1-0.2,0.2
					V20.5z"/>
				<path class="st1" d="M249.3,27.8V12.3c0-0.1,0.1-0.2,0.2-0.2h3.3c0.1,0,0.2,0.1,0.2,0.2v15.5c0,0.1-0.1,0.2-0.2,0.2h-3.3
					C249.4,28,249.3,27.9,249.3,27.8z"/>
				<path class="st1" d="M274.5,15.3H270c-0.1,0-0.2,0.1-0.2,0.2v12.3c0,0.1-0.1,0.2-0.2,0.2h-3.3c-0.1,0-0.2-0.1-0.2-0.2V15.5
					c0-0.1-0.1-0.2-0.2-0.2h-4.5c-0.1,0-0.2-0.1-0.2-0.2v-2.8c0-0.1,0.1-0.2,0.2-0.2h12.9c0.1,0,0.2,0.1,0.2,0.2v2.8
					C274.7,15.2,274.6,15.3,274.5,15.3z"/>
			</g>
			<g>
				<path class="st1" d="M162.5,39.7v-6.3c0-0.1,0.1-0.2,0.2-0.2h2.6c0.3,0,0.6,0.1,0.8,0.2c0.2,0.1,0.5,0.3,0.6,0.5
					c0.2,0.2,0.3,0.4,0.4,0.7c0.1,0.3,0.2,0.5,0.2,0.8c0,0.3,0,0.5-0.1,0.8c-0.1,0.3-0.2,0.5-0.4,0.7c-0.2,0.2-0.4,0.4-0.6,0.5
					c-0.2,0.1-0.5,0.2-0.8,0.2h-1.8c-0.1,0-0.2,0.1-0.2,0.2v2c0,0.1-0.1,0.2-0.2,0.2h-0.5C162.6,39.9,162.5,39.8,162.5,39.7z
					 M163.3,36.5c0,0.1,0.1,0.2,0.2,0.2h1.8c0.2,0,0.3,0,0.5-0.1c0.1-0.1,0.3-0.2,0.4-0.3c0.1-0.1,0.2-0.3,0.2-0.4
					c0.1-0.2,0.1-0.3,0.1-0.5c0-0.2,0-0.4-0.1-0.5c-0.1-0.2-0.2-0.3-0.3-0.4c-0.2-0.2-0.4-0.3-0.7-0.4c0,0,0,0,0,0l-1.8,0
					c-0.1,0-0.2,0.1-0.2,0.2V36.5z"/>
				<path class="st1" d="M172.2,35.5c0,0.1-0.1,0.2-0.2,0.2c-0.3,0-0.6,0.1-0.9,0.3c-0.3,0.2-0.5,0.5-0.7,0.8c0,0,0,0,0,0.1v2.8
					c0,0.1-0.1,0.2-0.2,0.2h-0.5c-0.1,0-0.2-0.1-0.2-0.2v-4.5c0-0.1,0.1-0.2,0.2-0.2h0.4c0.1,0,0.2,0.1,0.2,0.2v0.3
					c0,0.2,0.2,0.3,0.3,0.1c0.1-0.1,0.2-0.2,0.3-0.3c0.3-0.2,0.6-0.3,0.9-0.4c0.1,0,0.1,0,0.2,0c0,0,0.1,0,0.1,0L172.2,35.5z"/>
				<path class="st1" d="M176.5,40c-0.4,0-0.7-0.1-1-0.2c-0.3-0.1-0.6-0.3-0.8-0.6c-0.2-0.2-0.4-0.5-0.5-0.8c-0.1-0.3-0.2-0.6-0.2-1
					c0-0.3,0.1-0.7,0.2-1c0.1-0.3,0.3-0.6,0.5-0.8c0.2-0.2,0.5-0.4,0.8-0.6c0.3-0.1,0.6-0.2,1-0.2c0.4,0,0.7,0.1,1,0.2
					c0.3,0.1,0.6,0.3,0.8,0.6c0.2,0.2,0.4,0.5,0.5,0.8c0.1,0.3,0.2,0.6,0.2,1c0,0.3-0.1,0.7-0.2,1c-0.1,0.3-0.3,0.6-0.5,0.8
					c-0.2,0.2-0.5,0.4-0.8,0.6C177.2,39.9,176.8,40,176.5,40z M174.8,37.4c0,0.3,0,0.5,0.1,0.7c0.1,0.2,0.2,0.4,0.3,0.6
					c0.1,0.2,0.3,0.3,0.5,0.4c0.2,0.1,0.4,0.1,0.6,0.1c0.2,0,0.4,0,0.6-0.1c0.2-0.1,0.4-0.2,0.5-0.4c0.1-0.2,0.3-0.4,0.4-0.6
					c0.1-0.2,0.1-0.5,0.1-0.7c0-0.3,0-0.5-0.1-0.7c-0.1-0.2-0.2-0.4-0.4-0.6c-0.2-0.2-0.3-0.3-0.5-0.4c-0.2-0.1-0.4-0.1-0.6-0.1
					c-0.2,0-0.4,0-0.6,0.1c-0.2,0.1-0.4,0.2-0.5,0.4c-0.1,0.2-0.3,0.4-0.3,0.6C174.9,37,174.8,37.2,174.8,37.4z"/>
				<path class="st1" d="M181.3,35c0.1,0,0.1,0,0.2,0.1l1.3,1.7l0.1,0.2l0.1-0.2l1.3-1.7c0,0,0.1-0.1,0.2-0.1h0.4
					c0.2,0,0.2,0.2,0.2,0.3l-1.5,2.1c0,0.1,0,0.2,0,0.2l1.5,2c0.1,0.1,0,0.3-0.1,0.3h-0.4c-0.1,0-0.1,0-0.1-0.1l-1.3-1.7l-0.1-0.1
					l-0.1,0.1l-1.3,1.7c0,0-0.1,0.1-0.1,0.1h-0.4c-0.2,0-0.2-0.2-0.1-0.3l1.5-2c0-0.1,0.1-0.2,0-0.2l-1.5-2.1
					c-0.1-0.1,0-0.3,0.2-0.3H181.3z"/>
				<path class="st1" d="M187.3,33.9v-0.7c0-0.1,0.1-0.2,0.2-0.2h0.5c0.1,0,0.2,0.1,0.2,0.2v0.7c0,0.1-0.1,0.2-0.2,0.2h-0.5
					C187.4,34.1,187.3,34,187.3,33.9z M187.3,39.7v-4.5c0-0.1,0.1-0.2,0.2-0.2h0.5c0.1,0,0.2,0.1,0.2,0.2v4.5c0,0.1-0.1,0.2-0.2,0.2
					h-0.5C187.4,39.9,187.3,39.8,187.3,39.7z"/>
				<path class="st1" d="M198.1,39.9h-0.5c-0.1,0-0.2-0.1-0.2-0.2v-2.6c0-0.5-0.1-0.9-0.2-1.1c-0.2-0.2-0.4-0.4-0.7-0.4
					c-0.3,0-0.6,0.1-0.9,0.4c-0.3,0.2-0.4,0.5-0.6,0.9c0,0,0,0,0,0.1v2.7c0,0.1-0.1,0.2-0.2,0.2h-0.5c-0.1,0-0.2-0.1-0.2-0.2v-2.6
					c0-0.5-0.1-0.9-0.2-1.1c-0.2-0.2-0.4-0.4-0.7-0.4c-0.3,0-0.6,0.1-0.9,0.4c-0.3,0.2-0.4,0.5-0.6,0.9c0,0,0,0,0,0.1v2.7
					c0,0.1-0.1,0.2-0.2,0.2h-0.5c-0.1,0-0.2-0.1-0.2-0.2v-4.5c0-0.1,0.1-0.2,0.2-0.2h0.4c0.1,0,0.2,0.1,0.2,0.2v0.3
					c0,0.2,0.2,0.3,0.3,0.1c0.1-0.2,0.3-0.3,0.5-0.4c0.3-0.2,0.7-0.3,1.1-0.3c0.4,0,0.7,0.1,1,0.3c0.1,0.1,0.3,0.3,0.3,0.5
					c0.1,0.1,0.2,0.2,0.3,0c0.4-0.6,1-0.9,1.7-0.9c0.3,0,0.5,0.1,0.7,0.2c0.2,0.1,0.3,0.2,0.5,0.4c0.1,0.2,0.2,0.4,0.2,0.7
					c0.1,0.3,0.1,0.5,0.1,0.8v2.7C198.3,39.8,198.2,39.9,198.1,39.9z"/>
				<path class="st1" d="M201,33.9v-0.7c0-0.1,0.1-0.2,0.2-0.2h0.5c0.1,0,0.2,0.1,0.2,0.2v0.7c0,0.1-0.1,0.2-0.2,0.2h-0.5
					C201.1,34.1,201,34,201,33.9z M201,39.7v-4.5c0-0.1,0.1-0.2,0.2-0.2h0.5c0.1,0,0.2,0.1,0.2,0.2v4.5c0,0.1-0.1,0.2-0.2,0.2h-0.5
					C201.1,39.9,201,39.8,201,39.7z"/>
				<path class="st1" d="M207.1,39.6c-0.1,0-0.1,0.1-0.2,0.1c-0.1,0-0.2,0.1-0.3,0.1c-0.1,0-0.2,0.1-0.3,0.1c-0.1,0-0.2,0-0.4,0
					c-0.3,0-0.6-0.1-0.8-0.2c-0.2-0.2-0.3-0.4-0.3-0.8v-3.1c0-0.1-0.1-0.2-0.2-0.2h-0.3c-0.1,0-0.2-0.1-0.2-0.2v-0.3
					c0-0.1,0.1-0.2,0.2-0.2h0.3c0.1,0,0.2-0.1,0.2-0.2v-1.3c0-0.1,0.1-0.2,0.2-0.2h0.5c0.1,0,0.2,0.1,0.2,0.2v1.3
					c0,0.1,0.1,0.2,0.2,0.2h0.7c0.1,0,0.2,0.1,0.2,0.2v0.3c0,0.1-0.1,0.2-0.2,0.2h-0.7c-0.1,0-0.2,0.1-0.2,0.2v2.9
					c0,0.2,0.1,0.3,0.2,0.4c0.1,0.1,0.2,0.1,0.4,0.1c0.2,0,0.3,0,0.4-0.1c0,0,0.1,0,0.1,0c0.1,0,0.2,0,0.3,0.1L207.1,39.6z"/>
				<path class="st1" d="M209.5,41.2c0.1,0,0.2,0,0.2,0c0.1,0,0.1,0,0.2,0c0.1,0,0.1,0,0.2-0.1c0.1,0,0.1-0.1,0.2-0.2
					c0.1-0.1,0.1-0.2,0.2-0.4c0.1-0.2,0.2-0.4,0.3-0.6c0,0,0-0.1,0-0.1l-1.9-4.6c-0.1-0.1,0-0.3,0.2-0.3h0.4c0.1,0,0.1,0,0.2,0.1
					l1.4,3.6c0.1,0.2,0.3,0.2,0.3,0l1.3-3.6c0-0.1,0.1-0.1,0.2-0.1h0.4c0.1,0,0.2,0.1,0.2,0.3l-2.3,5.9c-0.1,0.2-0.2,0.4-0.4,0.6
					c-0.2,0.2-0.5,0.2-0.8,0.2c-0.1,0-0.1,0-0.2,0c-0.1,0-0.1,0-0.2,0V41.2z"/>
				<path class="st1" d="M215.6,40.6c-0.1,0-0.2-0.1-0.2-0.2l0.1-0.6h-0.1c-0.1,0-0.2-0.1-0.2-0.2V39c0-0.1,0.1-0.2,0.2-0.2h0.4
					c0.1,0,0.2,0.1,0.2,0.2v0.8c0,0,0,0,0,0.1l-0.2,0.7C215.8,40.6,215.7,40.6,215.6,40.6L215.6,40.6z"/>
				<path class="st1" d="M222.5,33.9v-0.7c0-0.1,0.1-0.2,0.2-0.2h0.5c0.1,0,0.2,0.1,0.2,0.2v0.7c0,0.1-0.1,0.2-0.2,0.2h-0.5
					C222.6,34.1,222.5,34,222.5,33.9z M222.5,39.7v-4.5c0-0.1,0.1-0.2,0.2-0.2h0.5c0.1,0,0.2,0.1,0.2,0.2v4.5c0,0.1-0.1,0.2-0.2,0.2
					h-0.5C222.6,39.9,222.5,39.8,222.5,39.7z"/>
				<path class="st1" d="M230.2,39.9h-0.5c-0.1,0-0.2-0.1-0.2-0.2v-2.6c0-0.5-0.1-0.9-0.2-1.1c-0.2-0.2-0.4-0.4-0.7-0.4
					c-0.2,0-0.3,0-0.5,0.1c-0.2,0.1-0.3,0.2-0.5,0.3c-0.2,0.1-0.3,0.2-0.4,0.4c-0.1,0.1-0.2,0.3-0.2,0.5c0,0,0,0,0,0.1v2.7
					c0,0.1-0.1,0.2-0.2,0.2h-0.5c-0.1,0-0.2-0.1-0.2-0.2v-4.5c0-0.1,0.1-0.2,0.2-0.2h0.4c0.1,0,0.2,0.1,0.2,0.2v0.3
					c0,0.2,0.2,0.3,0.3,0.1c0.1-0.2,0.3-0.3,0.5-0.4c0.4-0.2,0.8-0.3,1.2-0.3c0.3,0,0.5,0.1,0.7,0.2c0.2,0.1,0.3,0.2,0.5,0.4
					c0.1,0.2,0.2,0.4,0.2,0.7c0,0.3,0.1,0.5,0.1,0.8v2.7C230.3,39.8,230.3,39.9,230.2,39.9z"/>
				<path class="st1" d="M238.1,40c-0.2,0-0.4,0-0.6-0.1c-0.2-0.1-0.4-0.2-0.5-0.3c-0.1-0.1-0.3-0.3-0.3-0.5
					c-0.1-0.2-0.1-0.4-0.1-0.6c0-0.2,0.1-0.4,0.1-0.6c0.1-0.2,0.2-0.3,0.4-0.5c0.2-0.1,0.4-0.2,0.7-0.3c0.3-0.1,0.5-0.1,0.8-0.1
					c0.2,0,0.5,0,0.7,0.1c0.1,0,0.3,0.1,0.4,0.1c0.1,0,0.2-0.1,0.2-0.2v-0.1c0-0.4-0.1-0.7-0.3-0.9c-0.2-0.2-0.5-0.3-1-0.3
					c-0.4,0-0.9,0.2-1.4,0.5c-0.1,0.1-0.2,0-0.3-0.1l-0.1-0.2c0-0.1,0-0.2,0.1-0.2c0.6-0.4,1.2-0.5,1.8-0.5c0.6,0,1.1,0.2,1.5,0.5
					c0.4,0.3,0.5,0.8,0.5,1.5v2c0,0.1,0,0.2,0.1,0.3c0.1,0,0.1,0.1,0.1,0.2l0,0.6c-0.1,0-0.2,0-0.2,0c-0.1,0-0.1,0-0.2,0
					c-0.2,0-0.3,0-0.4-0.1c-0.1-0.1-0.2-0.2-0.2-0.4l0-0.3c-0.2,0.3-0.5,0.5-0.8,0.7C238.8,39.9,238.5,40,238.1,40z M238.3,39.4
					c0.3,0,0.6-0.1,0.8-0.2c0.3-0.1,0.4-0.3,0.6-0.4c0.1-0.1,0.2-0.2,0.2-0.4v-0.6c0-0.1,0-0.2-0.1-0.2c-0.4-0.1-0.7-0.2-1.1-0.2
					c-0.4,0-0.7,0.1-1,0.3c-0.3,0.2-0.4,0.4-0.4,0.7c0,0.1,0,0.3,0.1,0.4c0.1,0.1,0.1,0.2,0.2,0.3c0.1,0.1,0.2,0.2,0.3,0.2
					C238,39.3,238.1,39.4,238.3,39.4z"/>
				<path class="st1" d="M248.9,40c-0.4,0-0.8-0.1-1.2-0.2c-0.3-0.1-0.6-0.2-0.9-0.4c-0.1-0.1-0.1-0.2,0-0.2l0.2-0.2
					c0.1-0.1,0.2-0.1,0.3,0c0.2,0.2,0.5,0.3,0.7,0.4c0.3,0.1,0.6,0.2,0.9,0.2c0.4,0,0.6-0.1,0.8-0.2c0.2-0.1,0.3-0.3,0.3-0.6
					c0-0.1,0-0.2-0.1-0.3c-0.1-0.1-0.1-0.2-0.3-0.2s-0.3-0.1-0.4-0.2c-0.2-0.1-0.4-0.1-0.6-0.2c-0.3-0.1-0.5-0.1-0.8-0.2
					c-0.2-0.1-0.4-0.2-0.5-0.2c-0.1-0.1-0.2-0.2-0.3-0.3c-0.1-0.1-0.1-0.3-0.1-0.5c0-0.2,0-0.5,0.1-0.7c0.1-0.2,0.2-0.4,0.4-0.5
					s0.4-0.2,0.6-0.3c0.2-0.1,0.5-0.1,0.7-0.1c0.4,0,0.7,0.1,1,0.2c0.3,0.1,0.5,0.2,0.7,0.3c0.1,0.1,0.1,0.2,0,0.3l-0.2,0.2
					c-0.1,0.1-0.2,0.1-0.3,0c-0.2-0.1-0.4-0.2-0.6-0.3c-0.3-0.1-0.5-0.1-0.8-0.1c-0.3,0-0.6,0.1-0.8,0.2c-0.2,0.1-0.3,0.3-0.3,0.6
					c0,0.1,0,0.2,0.1,0.3c0,0.1,0.1,0.1,0.2,0.2c0.1,0.1,0.2,0.1,0.4,0.2c0.1,0,0.3,0.1,0.5,0.1c0.3,0.1,0.6,0.2,0.8,0.2
					c0.2,0.1,0.4,0.2,0.6,0.3c0.2,0.1,0.3,0.2,0.4,0.4c0.1,0.1,0.1,0.3,0.1,0.5c0,0.5-0.2,0.8-0.5,1.1C250,39.8,249.5,40,248.9,40z"
					/>
				<path class="st1" d="M257.3,39.9h-0.5c-0.1,0-0.2-0.1-0.2-0.2v-2.6c0-0.5-0.1-0.9-0.2-1.1c-0.2-0.2-0.4-0.4-0.7-0.4
					c-0.2,0-0.3,0-0.5,0.1c-0.2,0.1-0.3,0.2-0.5,0.3c-0.1,0.1-0.3,0.2-0.4,0.4c-0.1,0.1-0.2,0.3-0.2,0.5c0,0,0,0,0,0.1v2.7
					c0,0.1-0.1,0.2-0.2,0.2h-0.5c-0.1,0-0.2-0.1-0.2-0.2v-4.5c0-0.1,0.1-0.2,0.2-0.2h0.4c0.1,0,0.2,0.1,0.2,0.2v0.3
					c0,0.2,0.2,0.3,0.3,0.1c0.1-0.2,0.3-0.3,0.5-0.4c0.4-0.2,0.8-0.3,1.2-0.3c0.3,0,0.5,0.1,0.7,0.2c0.2,0.1,0.3,0.2,0.5,0.4
					c0.1,0.2,0.2,0.4,0.2,0.7c0,0.3,0.1,0.5,0.1,0.8v2.7C257.5,39.8,257.4,39.9,257.3,39.9z"/>
				<path class="st1" d="M261.4,40c-0.2,0-0.4,0-0.6-0.1c-0.2-0.1-0.4-0.2-0.5-0.3c-0.1-0.1-0.3-0.3-0.3-0.5
					c-0.1-0.2-0.1-0.4-0.1-0.6c0-0.2,0-0.4,0.1-0.6c0.1-0.2,0.2-0.3,0.4-0.5c0.2-0.1,0.4-0.2,0.7-0.3c0.3-0.1,0.5-0.1,0.8-0.1
					c0.2,0,0.5,0,0.7,0.1c0.1,0,0.3,0.1,0.4,0.1c0.1,0,0.2-0.1,0.2-0.2v-0.1c0-0.4-0.1-0.7-0.3-0.9c-0.2-0.2-0.5-0.3-1-0.3
					c-0.4,0-0.9,0.2-1.4,0.5c-0.1,0.1-0.2,0-0.3-0.1l-0.1-0.2c0-0.1,0-0.2,0.1-0.2c0.6-0.4,1.2-0.5,1.8-0.5c0.6,0,1.1,0.2,1.5,0.5
					c0.4,0.3,0.5,0.8,0.5,1.5v2c0,0.1,0,0.2,0.1,0.3c0.1,0,0.1,0.1,0.1,0.2v0.6c-0.1,0-0.2,0-0.2,0c-0.1,0-0.1,0-0.2,0
					c-0.2,0-0.3,0-0.4-0.1c-0.1-0.1-0.2-0.2-0.2-0.4l0-0.3c-0.2,0.3-0.5,0.5-0.8,0.7C262.2,39.9,261.8,40,261.4,40z M261.6,39.4
					c0.3,0,0.6-0.1,0.8-0.2c0.3-0.1,0.4-0.3,0.6-0.4c0.1-0.1,0.2-0.2,0.2-0.4v-0.6c0-0.1,0-0.2-0.1-0.2c-0.4-0.1-0.7-0.2-1.1-0.2
					c-0.4,0-0.7,0.1-1,0.3c-0.3,0.2-0.4,0.4-0.4,0.7c0,0.1,0,0.3,0.1,0.4c0.1,0.1,0.1,0.2,0.2,0.3c0.1,0.1,0.2,0.2,0.3,0.2
					C261.4,39.3,261.5,39.4,261.6,39.4z"/>
				<path class="st1" d="M269.4,40c-0.4,0-0.8-0.1-1.1-0.3c-0.2-0.1-0.3-0.2-0.4-0.3c-0.1-0.1-0.3,0-0.3,0.1v2.2
					c0,0.1-0.1,0.2-0.2,0.2H267c-0.1,0-0.2-0.1-0.2-0.2v-6.5c0-0.1,0.1-0.2,0.2-0.2h0.4c0.1,0,0.2,0.1,0.2,0.2v0.2
					c0,0.2,0.2,0.2,0.3,0.1c0.1-0.1,0.3-0.2,0.4-0.3c0.3-0.2,0.7-0.3,1-0.3c0.3,0,0.6,0.1,0.9,0.2c0.3,0.1,0.5,0.3,0.7,0.6
					c0.2,0.2,0.4,0.5,0.5,0.8c0.1,0.3,0.2,0.6,0.2,1c0,0.4-0.1,0.7-0.2,1c-0.1,0.3-0.3,0.6-0.5,0.8c-0.2,0.2-0.4,0.4-0.7,0.5
					C270,39.9,269.7,40,269.4,40z M268.9,39.2C268.9,39.2,268.9,39.2,268.9,39.2c0.4,0,0.7,0,0.9-0.1c0.2-0.1,0.4-0.2,0.5-0.4
					c0.1-0.2,0.2-0.4,0.3-0.6c0.1-0.2,0.1-0.4,0.1-0.7c0-0.2,0-0.5-0.1-0.7c-0.1-0.2-0.2-0.4-0.4-0.6c-0.2-0.2-0.3-0.3-0.5-0.4
					c-0.2-0.1-0.4-0.1-0.7-0.1c-0.2,0-0.3,0-0.5,0.1c-0.2,0.1-0.3,0.1-0.5,0.2c-0.1,0.1-0.3,0.2-0.4,0.3c-0.1,0.1-0.2,0.3-0.2,0.4
					c0,0,0,0,0,0v1.3c0,0,0,0.1,0,0.1c0.1,0.1,0.1,0.3,0.2,0.4c0.1,0.1,0.2,0.3,0.4,0.4C268.4,39.1,268.7,39.2,268.9,39.2z"/>
				<path class="st1" d="M274,39.7V39c0-0.1,0.1-0.2,0.2-0.2h0.3c0.1,0,0.2,0.1,0.2,0.2v0.7c0,0.1-0.1,0.2-0.2,0.2h-0.3
					C274,39.9,274,39.8,274,39.7z"/>
			</g>
		</g>
	</g>
	<g>
		<path class="st1" d="M3.1,16.9c-1.5,0-2.7,1.2-2.7,2.7h0v4.7v2.2v4.7h0c0,1.5,1.2,2.7,2.7,2.7c1.5,0,2.7-1.2,2.7-2.7h0v-4.7v-2.2
			v-4.7h0C5.8,18.2,4.6,16.9,3.1,16.9z"/>
		<path class="st1" d="M38.2,19.7c0-1.5-1.2-2.7-2.7-2.7c-1.5,0-2.7,1.2-2.7,2.7h0v4.7v2.2v4.7h0c0,1.5,1.2,2.7,2.7,2.7
			c1.5,0,2.7-1.2,2.7-2.7l0,0v-4.7v-2.2V19.7L38.2,19.7z"/>
		<path class="st1" d="M7,17.4H6.8v18.1c0,1.5,1.2,2.7,2.7,2.7h2.3v1.6v4.7h0c0,1.5,1.2,2.7,2.7,2.7s2.7-1.2,2.7-2.7l0,0v-4.7v-1.6
			h3.7v1.6v4.7c0,1.5,1.2,2.7,2.7,2.7c1.5,0,2.7-1.2,2.7-2.7v-4.7v-1.6h2.3c1.5,0,2.7-1.2,2.7-2.7V17.4h0H7z"/>
		<path class="st1" d="M31.7,16.5v-1.3c0-0.4-0.1-0.7-0.2-1.1c-0.7-3.2-2.9-5.9-6-7.5L27.4,3c0.1-0.2,0-0.5-0.2-0.6
			c-0.2-0.1-0.5,0-0.6,0.2l-1.9,3.5C23,5.4,21.2,5,19.3,5c-1.9,0-3.8,0.4-5.4,1.1l-1.9-3.6c-0.1-0.2-0.4-0.3-0.6-0.2
			C11.1,2.5,11,2.8,11.1,3L13,6.5c-2.9,1.5-5.1,4.1-5.9,7.1c-0.2,0.8-0.3,1.6-0.3,2.5c0,0.1,0,0.3,0,0.4H31.7z M24.9,9.7
			c0.6,0,1.2,0.5,1.2,1.2c0,0.6-0.5,1.2-1.2,1.2c-0.6,0-1.2-0.5-1.2-1.2C23.7,10.3,24.3,9.7,24.9,9.7z M13.6,9.7
			c0.6,0,1.2,0.5,1.2,1.2c0,0.6-0.5,1.2-1.2,1.2c-0.6,0-1.2-0.5-1.2-1.2C12.4,10.3,13,9.7,13.6,9.7z"/>
	</g>
	<line class="st3" x1="57.7" y1="12.3" x2="57.7" y2="37.3"/>
</g>
</svg>
