<?xml version="1.0" encoding="utf-8"?>
<!-- Generator: Adobe Illustrator 21.0.0, SVG Export Plug-In . SVG Version: 6.00 Build 0)  -->
<svg version="1.1" id="Livello_1" xmlns="http://www.w3.org/2000/svg" xmlns:xlink="http://www.w3.org/1999/xlink" x="0px" y="0px"
	 viewBox="0 0 275 50" style="enable-background:new 0 0 275 50;" xml:space="preserve">
<style type="text/css">
	.st0{fill:#A08DF3;}
	.st1{fill:#FFFFFF;}
	.st2{fill:#333333;}
	.st3{fill:none;stroke:#FFFFFF;stroke-width:0.5;stroke-linecap:round;stroke-linejoin:round;stroke-miterlimit:10;}
</style>
<g>
	<g>
		<path class="st1" d="M19.1,40.3c-0.1,0.1-0.4,0.1-0.5,0c-4-4.2-6.2-9.6-6.2-15.4c0-5.8,2.2-11.3,6.2-15.4c0.1-0.1,0.4-0.1,0.5,0
			l2.1,2.1c0.1,0.1,0.1,0.4,0,0.5c-3.3,3.5-5.1,8-5.1,12.8c0,4.8,1.8,9.3,5.1,12.8c0.1,0.1,0.1,0.4,0,0.5L19.1,40.3z"/>
		<path class="st1" d="M50,40.3l-2.1-2.1c-0.1-0.1-0.1-0.4,0-0.5c3.3-3.5,5.1-8,5.1-12.8c0-4.8-1.8-9.3-5.1-12.8
			c-0.1-0.1-0.1-0.4,0-0.5L50,9.4c0.1-0.1,0.4-0.1,0.5,0c4,4.2,6.2,9.6,6.2,15.4c0,5.8-2.2,11.3-6.2,15.4
			C50.4,40.4,50.1,40.4,50,40.3z"/>
		<path class="st1" d="M27.6,31.8c-1.9-1.9-2.9-4.3-2.9-6.9c0-2.6,1-5.1,2.9-6.9l2.6,2.6c-1.1,1.1-1.8,2.7-1.8,4.3
			c0,1.6,0.6,3.1,1.8,4.3L27.6,31.8z"/>
		<path class="st1" d="M41.2,31.5l-2.1-2.1c-0.1-0.1-0.1-0.4,0-0.5c1-1.1,1.5-2.5,1.5-4c0-1.5-0.5-2.9-1.5-4c-0.1-0.1-0.1-0.4,0-0.5
			l2.1-2.1c0.2-0.2,0.4-0.1,0.5,0c1.7,1.8,2.6,4.2,2.6,6.7c0,2.5-0.9,4.8-2.6,6.7C41.6,31.6,41.4,31.7,41.2,31.5z"/>
		<path class="st1" d="M56.4,49.3L11.8,4.7c-0.2-0.2-0.4-0.1-0.5,0c-10.4,12-9.9,30.2,1.3,41.7c0.1,0.1,0.1,0.4,0,0.5L10.4,49
			c-0.1,0.1-0.4,0.1-0.5,0C-3.4,35.5-3.3,13.8,10.1,0.4l0,0c0.7-0.7,1.9-0.7,2.6,0L57.4,45c0.2,0.2,0.4,0.1,0.5,0
			c4.8-5.6,7.5-12.7,7.5-20.1c0-8.1-3.1-15.8-8.8-21.5c-0.1-0.1-0.1-0.4,0-0.5l2.1-2.1c0.1-0.1,0.4-0.1,0.5,0
			C72.5,14.2,72.4,35.9,59,49.3l0,0C58.3,50,57.1,50,56.4,49.3z"/>
	</g>
	<g>
		<g>
			<path class="st1" d="M86.2,15.5v12.3c0,0.1-0.1,0.2-0.2,0.2h-1.2c-0.1,0-0.2-0.1-0.2-0.2V12.3c0-0.1,0.1-0.2,0.2-0.2h0.9
				c0.1,0,0.1,0,0.1,0.1l10.1,12.7c0.1,0.1,0.3,0.1,0.3-0.1V12.3c0-0.1,0.1-0.2,0.2-0.2h1.2c0.1,0,0.2,0.1,0.2,0.2v15.5
				c0,0.1-0.1,0.2-0.2,0.2h-1.1c-0.1,0-0.1,0-0.1-0.1l-9.9-12.5C86.4,15.3,86.2,15.4,86.2,15.5z"/>
			<path class="st1" d="M119.1,26.8v1c0,0.1-0.1,0.2-0.2,0.2h-10.2c-0.1,0-0.2-0.1-0.2-0.2V12.3c0-0.1,0.1-0.2,0.2-0.2h10
				c0.1,0,0.2,0.1,0.2,0.2v1c0,0.1-0.1,0.2-0.2,0.2h-8.5c-0.1,0-0.2,0.1-0.2,0.2V19c0,0.1,0.1,0.2,0.2,0.2h7.4
				c0.1,0,0.2,0.1,0.2,0.2v0.9c0,0.1-0.1,0.2-0.2,0.2h-7.4c-0.1,0-0.2,0.1-0.2,0.2v5.7c0,0.1,0.1,0.2,0.2,0.2h8.7
				C119,26.6,119.1,26.7,119.1,26.8z"/>
			<path class="st1" d="M127.2,27.7l6.4-15.5c0-0.1,0.1-0.1,0.2-0.1h1c0.1,0,0.1,0,0.2,0.1l6.4,15.5c0.1,0.1,0,0.3-0.2,0.3h-1.3
				c-0.1,0-0.1,0-0.2-0.1l-2-4.7c0-0.1-0.1-0.1-0.2-0.1h-6.8c-0.1,0-0.1,0-0.2,0.1l-1.9,4.7c0,0.1-0.1,0.1-0.2,0.1h-1.2
				C127.3,28,127.2,27.8,127.2,27.7z M134.2,14.3l-3,7.2c-0.1,0.1,0,0.3,0.2,0.3h5.8c0.1,0,0.2-0.1,0.2-0.3l-2.9-7.2
				C134.5,14.2,134.3,14.2,134.2,14.3z"/>
			<path class="st1" d="M150.6,27.8V12.3c0-0.1,0.1-0.2,0.2-0.2h6.5c0.7,0,1.3,0.1,1.9,0.4c0.6,0.3,1.1,0.7,1.5,1.1
				c0.4,0.5,0.7,1,1,1.6c0.2,0.6,0.3,1.2,0.3,1.8c0,0.6-0.1,1.1-0.3,1.7c-0.2,0.5-0.4,1-0.7,1.4c-0.3,0.4-0.7,0.8-1.1,1.1
				c-0.4,0.2-0.8,0.4-1.2,0.5c-0.1,0-0.2,0.2-0.1,0.3l3.6,5.6c0.1,0.1,0,0.3-0.2,0.3h-1.3c-0.1,0-0.1,0-0.2-0.1l-3.6-5.7
				c0-0.1-0.1-0.1-0.2-0.1h-4.4c-0.1,0-0.2,0.1-0.2,0.2v5.5c0,0.1-0.1,0.2-0.2,0.2h-1.2C150.6,28,150.6,27.9,150.6,27.8z
				 M152.1,20.5c0,0.1,0.1,0.2,0.2,0.2h5c0.5,0,0.9-0.1,1.3-0.3c0.4-0.2,0.7-0.5,1-0.8c0.3-0.3,0.5-0.7,0.6-1.2
				c0.1-0.4,0.2-0.9,0.2-1.4c0-0.5-0.1-0.9-0.3-1.4c-0.2-0.4-0.4-0.8-0.7-1.2c-0.3-0.3-0.6-0.6-1-0.8c-0.4-0.2-0.8-0.3-1.2-0.3h-4.9
				c-0.1,0-0.2,0.1-0.2,0.2V20.5z"/>
			<path class="st1" d="M171.4,27.8V12.3c0-0.1,0.1-0.2,0.2-0.2h3.3c0.1,0,0.2,0.1,0.2,0.2v15.5c0,0.1-0.1,0.2-0.2,0.2h-3.3
				C171.5,28,171.4,27.9,171.4,27.8z"/>
			<path class="st1" d="M196.6,15.3h-4.4c-0.1,0-0.2,0.1-0.2,0.2v12.3c0,0.1-0.1,0.2-0.2,0.2h-3.3c-0.1,0-0.2-0.1-0.2-0.2V15.5
				c0-0.1-0.1-0.2-0.2-0.2h-4.5c-0.1,0-0.2-0.1-0.2-0.2v-2.8c0-0.1,0.1-0.2,0.2-0.2h12.9c0.1,0,0.2,0.1,0.2,0.2v2.8
				C196.8,15.2,196.7,15.3,196.6,15.3z"/>
		</g>
		<g>
			<path class="st1" d="M84.6,39.7v-6.3c0-0.1,0.1-0.2,0.2-0.2h2.6c0.3,0,0.6,0.1,0.8,0.2c0.2,0.1,0.5,0.3,0.6,0.5
				c0.2,0.2,0.3,0.4,0.4,0.7c0.1,0.3,0.2,0.5,0.2,0.8c0,0.3,0,0.5-0.1,0.8c-0.1,0.3-0.2,0.5-0.4,0.7c-0.2,0.2-0.4,0.4-0.6,0.5
				c-0.2,0.1-0.5,0.2-0.8,0.2h-1.8c-0.1,0-0.2,0.1-0.2,0.2v2c0,0.1-0.1,0.2-0.2,0.2h-0.5C84.7,39.9,84.6,39.8,84.6,39.7z M85.5,36.5
				c0,0.1,0.1,0.2,0.2,0.2h1.8c0.2,0,0.3,0,0.5-0.1c0.1-0.1,0.3-0.2,0.4-0.3c0.1-0.1,0.2-0.3,0.2-0.4c0.1-0.2,0.1-0.3,0.1-0.5
				c0-0.2,0-0.4-0.1-0.5c-0.1-0.2-0.2-0.3-0.3-0.4C88,34.2,87.8,34,87.5,34c0,0,0,0,0,0l-1.8,0c-0.1,0-0.2,0.1-0.2,0.2V36.5z"/>
			<path class="st1" d="M94.3,35.5c0,0.1-0.1,0.2-0.2,0.2c-0.3,0-0.6,0.1-0.9,0.3c-0.3,0.2-0.5,0.5-0.7,0.8c0,0,0,0,0,0.1l0,2.8
				c0,0.1-0.1,0.2-0.2,0.2h-0.5c-0.1,0-0.2-0.1-0.2-0.2v-4.5c0-0.1,0.1-0.2,0.2-0.2h0.4c0.1,0,0.2,0.1,0.2,0.2v0.3
				c0,0.2,0.2,0.3,0.3,0.1c0.1-0.1,0.2-0.2,0.3-0.3c0.3-0.2,0.6-0.3,0.9-0.4c0.1,0,0.1,0,0.2,0c0,0,0.1,0,0.1,0L94.3,35.5z"/>
			<path class="st1" d="M98.6,40c-0.4,0-0.7-0.1-1-0.2c-0.3-0.1-0.6-0.3-0.8-0.6c-0.2-0.2-0.4-0.5-0.5-0.8c-0.1-0.3-0.2-0.6-0.2-1
				c0-0.3,0.1-0.7,0.2-1c0.1-0.3,0.3-0.6,0.5-0.8c0.2-0.2,0.5-0.4,0.8-0.6c0.3-0.1,0.6-0.2,1-0.2c0.4,0,0.7,0.1,1,0.2
				c0.3,0.1,0.6,0.3,0.8,0.6c0.2,0.2,0.4,0.5,0.5,0.8c0.1,0.3,0.2,0.6,0.2,1c0,0.3-0.1,0.7-0.2,1c-0.1,0.3-0.3,0.6-0.5,0.8
				c-0.2,0.2-0.5,0.4-0.8,0.6C99.3,39.9,99,40,98.6,40z M97,37.4c0,0.3,0,0.5,0.1,0.7c0.1,0.2,0.2,0.4,0.3,0.6
				c0.1,0.2,0.3,0.3,0.5,0.4c0.2,0.1,0.4,0.1,0.6,0.1c0.2,0,0.4,0,0.6-0.1c0.2-0.1,0.4-0.2,0.5-0.4c0.2-0.2,0.3-0.4,0.4-0.6
				c0.1-0.2,0.1-0.5,0.1-0.7c0-0.3,0-0.5-0.1-0.7c-0.1-0.2-0.2-0.4-0.4-0.6c-0.2-0.2-0.3-0.3-0.5-0.4c-0.2-0.1-0.4-0.1-0.6-0.1
				c-0.2,0-0.4,0-0.6,0.1c-0.2,0.1-0.4,0.2-0.5,0.4c-0.1,0.2-0.3,0.4-0.3,0.6C97,37,97,37.2,97,37.4z"/>
			<path class="st1" d="M103.5,35c0.1,0,0.1,0,0.2,0.1l1.3,1.7l0.1,0.2l0.1-0.2l1.3-1.7c0,0,0.1-0.1,0.2-0.1h0.4
				c0.2,0,0.2,0.2,0.2,0.3l-1.5,2.1c0,0.1,0,0.2,0,0.2l1.5,2c0.1,0.1,0,0.3-0.1,0.3h-0.4c-0.1,0-0.1,0-0.1-0.1l-1.3-1.7l-0.1-0.1
				l-0.1,0.1l-1.3,1.7c0,0-0.1,0.1-0.1,0.1h-0.4c-0.2,0-0.2-0.2-0.1-0.3l1.5-2c0-0.1,0.1-0.2,0-0.2l-1.5-2.1c-0.1-0.1,0-0.3,0.2-0.3
				H103.5z"/>
			<path class="st1" d="M109.5,33.9v-0.7c0-0.1,0.1-0.2,0.2-0.2h0.5c0.1,0,0.2,0.1,0.2,0.2v0.7c0,0.1-0.1,0.2-0.2,0.2h-0.5
				C109.5,34.1,109.5,34,109.5,33.9z M109.5,39.7v-4.5c0-0.1,0.1-0.2,0.2-0.2h0.5c0.1,0,0.2,0.1,0.2,0.2v4.5c0,0.1-0.1,0.2-0.2,0.2
				h-0.5C109.5,39.9,109.5,39.8,109.5,39.7z"/>
			<path class="st1" d="M120.2,39.9h-0.5c-0.1,0-0.2-0.1-0.2-0.2v-2.6c0-0.5-0.1-0.9-0.2-1.1c-0.2-0.2-0.4-0.4-0.7-0.4
				c-0.3,0-0.6,0.1-0.9,0.4c-0.3,0.2-0.4,0.5-0.6,0.9c0,0,0,0,0,0.1l0,2.7c0,0.1-0.1,0.2-0.2,0.2h-0.5c-0.1,0-0.2-0.1-0.2-0.2v-2.6
				c0-0.5-0.1-0.9-0.2-1.1c-0.2-0.2-0.4-0.4-0.7-0.4c-0.3,0-0.6,0.1-0.9,0.4c-0.3,0.2-0.4,0.5-0.6,0.9c0,0,0,0,0,0.1v2.7
				c0,0.1-0.1,0.2-0.2,0.2h-0.5c-0.1,0-0.2-0.1-0.2-0.2v-4.5c0-0.1,0.1-0.2,0.2-0.2h0.4c0.1,0,0.2,0.1,0.2,0.2l0,0.3
				c0,0.2,0.2,0.3,0.3,0.1c0.1-0.2,0.3-0.3,0.5-0.4c0.3-0.2,0.7-0.3,1.1-0.3c0.4,0,0.7,0.1,1,0.3c0.1,0.1,0.3,0.3,0.3,0.5
				c0.1,0.1,0.2,0.2,0.3,0c0.4-0.6,1-0.9,1.7-0.9c0.3,0,0.5,0.1,0.7,0.2c0.2,0.1,0.3,0.2,0.5,0.4c0.1,0.2,0.2,0.4,0.2,0.7
				c0.1,0.3,0.1,0.5,0.1,0.8v2.7C120.4,39.8,120.3,39.9,120.2,39.9z"/>
			<path class="st1" d="M123.1,33.9v-0.7c0-0.1,0.1-0.2,0.2-0.2h0.5c0.1,0,0.2,0.1,0.2,0.2v0.7c0,0.1-0.1,0.2-0.2,0.2h-0.5
				C123.2,34.1,123.1,34,123.1,33.9z M123.1,39.7v-4.5c0-0.1,0.1-0.2,0.2-0.2h0.5c0.1,0,0.2,0.1,0.2,0.2v4.5c0,0.1-0.1,0.2-0.2,0.2
				h-0.5C123.2,39.9,123.1,39.8,123.1,39.7z"/>
			<path class="st1" d="M129.2,39.6c-0.1,0-0.1,0.1-0.2,0.1c-0.1,0-0.2,0.1-0.3,0.1c-0.1,0-0.2,0.1-0.3,0.1c-0.1,0-0.2,0-0.4,0
				c-0.3,0-0.6-0.1-0.8-0.2c-0.2-0.2-0.3-0.4-0.3-0.8v-3.1c0-0.1-0.1-0.2-0.2-0.2h-0.3c-0.1,0-0.2-0.1-0.2-0.2v-0.3
				c0-0.1,0.1-0.2,0.2-0.2h0.3c0.1,0,0.2-0.1,0.2-0.2v-1.3c0-0.1,0.1-0.2,0.2-0.2h0.5c0.1,0,0.2,0.1,0.2,0.2v1.3
				c0,0.1,0.1,0.2,0.2,0.2h0.7c0.1,0,0.2,0.1,0.2,0.2v0.3c0,0.1-0.1,0.2-0.2,0.2h-0.7c-0.1,0-0.2,0.1-0.2,0.2v2.9
				c0,0.2,0.1,0.3,0.2,0.4c0.1,0.1,0.2,0.1,0.4,0.1c0.2,0,0.3,0,0.4-0.1c0,0,0.1,0,0.1,0c0.1,0,0.2,0,0.3,0.1L129.2,39.6z"/>
			<path class="st1" d="M131.6,41.2c0.1,0,0.2,0,0.2,0c0.1,0,0.1,0,0.2,0c0.1,0,0.1,0,0.2-0.1c0.1,0,0.1-0.1,0.2-0.2
				c0.1-0.1,0.1-0.2,0.2-0.4c0.1-0.2,0.2-0.4,0.3-0.6c0,0,0-0.1,0-0.1l-1.9-4.6c-0.1-0.1,0-0.3,0.2-0.3h0.4c0.1,0,0.1,0,0.2,0.1
				l1.4,3.6c0.1,0.2,0.3,0.2,0.3,0l1.3-3.6c0-0.1,0.1-0.1,0.2-0.1h0.4c0.1,0,0.2,0.1,0.2,0.3l-2.3,5.9c-0.1,0.2-0.2,0.4-0.4,0.6
				c-0.2,0.2-0.5,0.2-0.8,0.2c-0.1,0-0.1,0-0.2,0c-0.1,0-0.1,0-0.2,0V41.2z"/>
			<path class="st1" d="M137.8,40.6c-0.1,0-0.2-0.1-0.2-0.2l0.1-0.6h-0.1c-0.1,0-0.2-0.1-0.2-0.2V39c0-0.1,0.1-0.2,0.2-0.2h0.4
				c0.1,0,0.2,0.1,0.2,0.2v0.8c0,0,0,0,0,0.1l-0.2,0.7C137.9,40.6,137.9,40.6,137.8,40.6L137.8,40.6z"/>
			<path class="st1" d="M144.7,33.9v-0.7c0-0.1,0.1-0.2,0.2-0.2h0.5c0.1,0,0.2,0.1,0.2,0.2v0.7c0,0.1-0.1,0.2-0.2,0.2h-0.5
				C144.7,34.1,144.7,34,144.7,33.9z M144.7,39.7v-4.5c0-0.1,0.1-0.2,0.2-0.2h0.5c0.1,0,0.2,0.1,0.2,0.2v4.5c0,0.1-0.1,0.2-0.2,0.2
				h-0.5C144.7,39.9,144.7,39.8,144.7,39.7z"/>
			<path class="st1" d="M152.3,39.9h-0.5c-0.1,0-0.2-0.1-0.2-0.2v-2.6c0-0.5-0.1-0.9-0.2-1.1c-0.2-0.2-0.4-0.4-0.7-0.4
				c-0.2,0-0.3,0-0.5,0.1c-0.2,0.1-0.3,0.2-0.5,0.3c-0.2,0.1-0.3,0.2-0.4,0.4c-0.1,0.1-0.2,0.3-0.2,0.5c0,0,0,0,0,0.1v2.7
				c0,0.1-0.1,0.2-0.2,0.2h-0.5c-0.1,0-0.2-0.1-0.2-0.2v-4.5c0-0.1,0.1-0.2,0.2-0.2h0.4c0.1,0,0.2,0.1,0.2,0.2l0,0.3
				c0,0.2,0.2,0.3,0.3,0.1c0.1-0.2,0.3-0.3,0.5-0.4c0.4-0.2,0.8-0.3,1.2-0.3c0.3,0,0.5,0.1,0.7,0.2c0.2,0.1,0.3,0.2,0.5,0.4
				c0.1,0.2,0.2,0.4,0.2,0.7c0,0.3,0.1,0.5,0.1,0.8v2.7C152.5,39.8,152.4,39.9,152.3,39.9z"/>
			<path class="st1" d="M160.2,40c-0.2,0-0.4,0-0.6-0.1c-0.2-0.1-0.4-0.2-0.5-0.3c-0.1-0.1-0.3-0.3-0.3-0.5
				c-0.1-0.2-0.1-0.4-0.1-0.6c0-0.2,0-0.4,0.1-0.6c0.1-0.2,0.2-0.3,0.4-0.5c0.2-0.1,0.4-0.2,0.7-0.3c0.3-0.1,0.5-0.1,0.8-0.1
				c0.2,0,0.5,0,0.7,0.1c0.1,0,0.3,0.1,0.4,0.1c0.1,0,0.2-0.1,0.2-0.2v-0.1c0-0.4-0.1-0.7-0.3-0.9c-0.2-0.2-0.5-0.3-1-0.3
				c-0.4,0-0.9,0.2-1.4,0.5c-0.1,0.1-0.2,0-0.3-0.1l-0.1-0.2c0-0.1,0-0.2,0.1-0.2c0.6-0.4,1.2-0.5,1.8-0.5c0.6,0,1.1,0.2,1.5,0.5
				c0.4,0.3,0.5,0.8,0.5,1.5v2c0,0.1,0,0.2,0.1,0.3c0.1,0,0.1,0.1,0.1,0.2l0,0.6c-0.1,0-0.2,0-0.2,0c-0.1,0-0.1,0-0.2,0
				c-0.2,0-0.3,0-0.4-0.1c-0.1-0.1-0.2-0.2-0.2-0.4l0-0.3c-0.2,0.3-0.5,0.5-0.8,0.7C160.9,39.9,160.6,40,160.2,40z M160.4,39.4
				c0.3,0,0.6-0.1,0.8-0.2c0.3-0.1,0.4-0.3,0.6-0.4c0.1-0.1,0.2-0.2,0.2-0.4v-0.6c0-0.1,0-0.2-0.1-0.2c-0.4-0.1-0.7-0.2-1.1-0.2
				c-0.4,0-0.7,0.1-1,0.3c-0.3,0.2-0.4,0.4-0.4,0.7c0,0.1,0,0.3,0.1,0.4c0.1,0.1,0.1,0.2,0.2,0.3c0.1,0.1,0.2,0.2,0.3,0.2
				C160.1,39.3,160.3,39.4,160.4,39.4z"/>
			<path class="st1" d="M171,40c-0.4,0-0.8-0.1-1.2-0.2c-0.3-0.1-0.6-0.2-0.9-0.4c-0.1-0.1-0.1-0.2,0-0.2l0.2-0.2
				c0.1-0.1,0.2-0.1,0.3,0c0.2,0.2,0.5,0.3,0.7,0.4c0.3,0.1,0.6,0.2,0.9,0.2c0.4,0,0.6-0.1,0.8-0.2c0.2-0.1,0.3-0.3,0.3-0.6
				c0-0.1,0-0.2-0.1-0.3c-0.1-0.1-0.1-0.2-0.3-0.2s-0.3-0.1-0.4-0.2c-0.2-0.1-0.4-0.1-0.6-0.2c-0.3-0.1-0.5-0.1-0.8-0.2
				c-0.2-0.1-0.4-0.2-0.5-0.2c-0.1-0.1-0.2-0.2-0.3-0.3c-0.1-0.1-0.1-0.3-0.1-0.5c0-0.2,0-0.5,0.1-0.7c0.1-0.2,0.2-0.4,0.4-0.5
				s0.4-0.2,0.6-0.3c0.2-0.1,0.5-0.1,0.7-0.1c0.4,0,0.7,0.1,1,0.2c0.3,0.1,0.5,0.2,0.7,0.3c0.1,0.1,0.1,0.2,0,0.3l-0.2,0.2
				c-0.1,0.1-0.2,0.1-0.3,0c-0.2-0.1-0.4-0.2-0.6-0.3c-0.3-0.1-0.5-0.1-0.8-0.1c-0.3,0-0.6,0.1-0.8,0.2c-0.2,0.1-0.3,0.3-0.3,0.6
				c0,0.1,0,0.2,0.1,0.3c0,0.1,0.1,0.1,0.2,0.2c0.1,0.1,0.2,0.1,0.4,0.2c0.1,0,0.3,0.1,0.5,0.1c0.3,0.1,0.6,0.2,0.8,0.2
				c0.2,0.1,0.4,0.2,0.6,0.3c0.2,0.1,0.3,0.2,0.4,0.4c0.1,0.1,0.1,0.3,0.1,0.5c0,0.5-0.2,0.8-0.5,1.1C172.1,39.8,171.6,40,171,40z"
				/>
			<path class="st1" d="M179.4,39.9H179c-0.1,0-0.2-0.1-0.2-0.2v-2.6c0-0.5-0.1-0.9-0.2-1.1c-0.2-0.2-0.4-0.4-0.7-0.4
				c-0.2,0-0.3,0-0.5,0.1c-0.2,0.1-0.3,0.2-0.5,0.3c-0.1,0.1-0.3,0.2-0.4,0.4c-0.1,0.1-0.2,0.3-0.2,0.5c0,0,0,0,0,0.1v2.7
				c0,0.1-0.1,0.2-0.2,0.2h-0.5c-0.1,0-0.2-0.1-0.2-0.2v-4.5c0-0.1,0.1-0.2,0.2-0.2h0.4c0.1,0,0.2,0.1,0.2,0.2v0.3
				c0,0.2,0.2,0.3,0.3,0.1c0.1-0.2,0.3-0.3,0.5-0.4c0.4-0.2,0.8-0.3,1.2-0.3c0.3,0,0.5,0.1,0.7,0.2c0.2,0.1,0.3,0.2,0.5,0.4
				c0.1,0.2,0.2,0.4,0.2,0.7c0,0.3,0.1,0.5,0.1,0.8v2.7C179.6,39.8,179.5,39.9,179.4,39.9z"/>
			<path class="st1" d="M183.6,40c-0.2,0-0.4,0-0.6-0.1c-0.2-0.1-0.4-0.2-0.5-0.3c-0.1-0.1-0.3-0.3-0.3-0.5
				c-0.1-0.2-0.1-0.4-0.1-0.6c0-0.2,0.1-0.4,0.2-0.6c0.1-0.2,0.2-0.3,0.4-0.5c0.2-0.1,0.4-0.2,0.7-0.3c0.3-0.1,0.5-0.1,0.8-0.1
				c0.2,0,0.5,0,0.7,0.1c0.1,0,0.3,0.1,0.4,0.1c0.1,0,0.2-0.1,0.2-0.2v-0.1c0-0.4-0.1-0.7-0.3-0.9c-0.2-0.2-0.5-0.3-1-0.3
				c-0.4,0-0.9,0.2-1.4,0.5c-0.1,0.1-0.2,0-0.3-0.1l-0.1-0.2c0-0.1,0-0.2,0.1-0.2c0.6-0.4,1.2-0.5,1.8-0.5c0.6,0,1.1,0.2,1.5,0.5
				c0.4,0.3,0.5,0.8,0.5,1.5v2c0,0.1,0,0.2,0.1,0.3c0.1,0,0.1,0.1,0.1,0.2l0,0.6c-0.1,0-0.2,0-0.2,0c-0.1,0-0.1,0-0.2,0
				c-0.2,0-0.3,0-0.4-0.1c-0.1-0.1-0.2-0.2-0.2-0.4l0-0.3c-0.2,0.3-0.5,0.5-0.8,0.7C184.3,39.9,183.9,40,183.6,40z M183.8,39.4
				c0.3,0,0.6-0.1,0.8-0.2c0.3-0.1,0.4-0.3,0.6-0.4c0.1-0.1,0.2-0.2,0.2-0.4v-0.6c0-0.1,0-0.2-0.1-0.2c-0.4-0.1-0.7-0.2-1.1-0.2
				c-0.4,0-0.7,0.1-1,0.3c-0.3,0.2-0.4,0.4-0.4,0.7c0,0.1,0,0.3,0.1,0.4c0.1,0.1,0.1,0.2,0.2,0.3c0.1,0.1,0.2,0.2,0.3,0.2
				C183.5,39.3,183.6,39.4,183.8,39.4z"/>
			<path class="st1" d="M191.5,40c-0.4,0-0.8-0.1-1.1-0.3c-0.2-0.1-0.3-0.2-0.4-0.3c-0.1-0.1-0.3,0-0.3,0.1v2.2
				c0,0.1-0.1,0.2-0.2,0.2h-0.5c-0.1,0-0.2-0.1-0.2-0.2v-6.5c0-0.1,0.1-0.2,0.2-0.2h0.4c0.1,0,0.2,0.1,0.2,0.2v0.2
				c0,0.2,0.2,0.2,0.3,0.1c0.1-0.1,0.3-0.2,0.4-0.3c0.3-0.2,0.7-0.3,1-0.3c0.3,0,0.6,0.1,0.9,0.2c0.3,0.1,0.5,0.3,0.7,0.6
				c0.2,0.2,0.4,0.5,0.5,0.8c0.1,0.3,0.2,0.6,0.2,1c0,0.4-0.1,0.7-0.2,1c-0.1,0.3-0.3,0.6-0.5,0.8c-0.2,0.2-0.4,0.4-0.7,0.5
				C192.2,39.9,191.9,40,191.5,40z M191,39.2C191,39.2,191,39.2,191,39.2c0.4,0,0.7,0,0.9-0.1c0.2-0.1,0.4-0.2,0.5-0.4
				c0.1-0.2,0.2-0.4,0.3-0.6c0.1-0.2,0.1-0.4,0.1-0.7c0-0.2,0-0.5-0.1-0.7c-0.1-0.2-0.2-0.4-0.4-0.6c-0.2-0.2-0.3-0.3-0.5-0.4
				c-0.2-0.1-0.4-0.1-0.7-0.1c-0.2,0-0.3,0-0.5,0.1c-0.2,0.1-0.3,0.1-0.5,0.2c-0.1,0.1-0.3,0.2-0.4,0.3c-0.1,0.1-0.2,0.3-0.2,0.4
				c0,0,0,0,0,0v1.3c0,0,0,0.1,0,0.1c0.1,0.1,0.1,0.3,0.2,0.4c0.1,0.1,0.2,0.3,0.4,0.4C190.6,39.1,190.8,39.2,191,39.2z"/>
			<path class="st1" d="M196.1,39.7V39c0-0.1,0.1-0.2,0.2-0.2h0.3c0.1,0,0.2,0.1,0.2,0.2v0.7c0,0.1-0.1,0.2-0.2,0.2h-0.3
				C196.2,39.9,196.1,39.8,196.1,39.7z"/>
		</g>
	</g>
</g>
<g>
	<path class="st1" d="M239.9,16.9c-1.5,0-2.7,1.2-2.7,2.7h0v4.7v2.2v4.7h0c0,1.5,1.2,2.7,2.7,2.7c1.5,0,2.7-1.2,2.7-2.7h0v-4.7v-2.2
		v-4.7h0C242.7,18.2,241.4,16.9,239.9,16.9z"/>
	<path class="st1" d="M275,19.7c0-1.5-1.2-2.7-2.7-2.7c-1.5,0-2.7,1.2-2.7,2.7h0v4.7v2.2v4.7h0c0,1.5,1.2,2.7,2.7,2.7
		c1.5,0,2.7-1.2,2.7-2.7l0,0v-4.7v-2.2V19.7L275,19.7z"/>
	<path class="st1" d="M243.8,17.4h-0.1v18.1c0,1.5,1.2,2.7,2.7,2.7h2.3v1.6v4.7h0c0,1.5,1.2,2.7,2.7,2.7c1.5,0,2.7-1.2,2.7-2.7l0,0
		v-4.7v-1.6h3.7v1.6v4.7c0,1.5,1.2,2.7,2.7,2.7c1.5,0,2.7-1.2,2.7-2.7v-4.7v-1.6h2.3c1.5,0,2.7-1.2,2.7-2.7V17.4h0H243.8z"/>
	<path class="st1" d="M268.5,16.5v-1.3c0-0.4-0.1-0.7-0.2-1.1c-0.7-3.2-2.9-5.9-6-7.5l1.9-3.5c0.1-0.2,0-0.5-0.2-0.6
		c-0.2-0.1-0.5,0-0.6,0.2l-1.9,3.5C259.9,5.4,258,5,256.1,5c-1.9,0-3.8,0.4-5.4,1.1l-1.9-3.6c-0.1-0.2-0.4-0.3-0.6-0.2
		c-0.2,0.1-0.3,0.4-0.2,0.6l1.9,3.5c-2.9,1.5-5.1,4.1-5.9,7.1c-0.2,0.8-0.3,1.6-0.3,2.5c0,0.1,0,0.3,0,0.4H268.5z M261.7,9.7
		c0.6,0,1.2,0.5,1.2,1.2c0,0.6-0.5,1.2-1.2,1.2c-0.6,0-1.2-0.5-1.2-1.2C260.6,10.3,261.1,9.7,261.7,9.7z M250.4,9.7
		c0.6,0,1.2,0.5,1.2,1.2c0,0.6-0.5,1.2-1.2,1.2c-0.6,0-1.2-0.5-1.2-1.2C249.3,10.3,249.8,9.7,250.4,9.7z"/>
</g>
<line class="st3" x1="217.7" y1="12.3" x2="217.7" y2="37.3"/>
</svg>
