<svg xmlns="http://www.w3.org/2000/svg" width="236" height="46" viewBox="0 0 236 46">
    <g fill="none" fill-rule="evenodd">
        <path fill="#A69FFF" d="M17.223 37.063a.336.336 0 0 1-.48-.002 19.839 19.839 0 0 1-5.612-13.882c0-5.223 1.99-10.14 5.613-13.885a.337.337 0 0 1 .479-.002l1.904 1.903c.13.131.13.34.002.473a16.498 16.498 0 0 0-4.633 11.511c0 4.325 1.643 8.399 4.633 11.509a.336.336 0 0 1-.002.472l-1.904 1.903zM44.994 37.063L43.09 35.16a.335.335 0 0 1-.002-.472 16.504 16.504 0 0 0 4.633-11.511c0-4.326-1.643-8.4-4.633-11.509a.337.337 0 0 1 .002-.473l1.903-1.903a.339.339 0 0 1 .48.002 19.842 19.842 0 0 1 5.612 13.883c0 5.223-1.99 10.139-5.612 13.884a.337.337 0 0 1-.48.002M24.863 29.423a8.774 8.774 0 0 1-2.587-6.244 8.78 8.78 0 0 1 2.587-6.247l2.38 2.38a5.429 5.429 0 0 0-1.603 3.866 5.436 5.436 0 0 0 1.602 3.866l-2.379 2.379zM37.11 29.18l-1.905-1.906a.335.335 0 0 1-.014-.46 5.423 5.423 0 0 0 1.385-3.636 5.423 5.423 0 0 0-1.385-3.637.336.336 0 0 1 .014-.46l1.906-1.905a.339.339 0 0 1 .488.01 8.775 8.775 0 0 1 2.342 5.992c0 2.24-.83 4.355-2.342 5.99a.339.339 0 0 1-.488.012"/>
        <path fill="#A69FFF" d="M50.736 45.185L10.581 5.03a.337.337 0 0 0-.493.017c-9.337 10.81-8.952 27.17 1.158 37.521a.336.336 0 0 1-.002.473l-1.903 1.903a.338.338 0 0 1-.48 0C-3.034 32.788-2.954 13.224 9.101 1.17a1.682 1.682 0 0 1 2.38 0l40.154 40.156a.338.338 0 0 0 .493-.016c4.36-5.039 6.738-11.403 6.738-18.132 0-7.304-2.8-14.177-7.896-19.39a.336.336 0 0 1 .002-.474l1.903-1.903a.338.338 0 0 1 .48.001c11.895 12.154 11.815 31.718-.24 43.773a1.682 1.682 0 0 1-2.379 0"/>
        <path fill="#FFF" d="M77.547 14.81v11.03a.168.168 0 0 1-.168.169h-1.045a.168.168 0 0 1-.168-.168V11.877c0-.092.075-.168.168-.168h.83c.052 0 .1.024.133.064l9.055 11.459c.099.125.3.056.3-.104v-11.23c0-.093.076-.168.168-.168h1.045c.093 0 .168.075.168.168V25.84a.168.168 0 0 1-.168.168h-.951a.168.168 0 0 1-.132-.063l-8.935-11.241a.168.168 0 0 0-.3.105M107.184 24.928v.913a.168.168 0 0 1-.168.168h-9.209a.168.168 0 0 1-.168-.168V11.877c0-.093.075-.168.168-.168h9.03c.092 0 .167.075.167.168v.913a.168.168 0 0 1-.168.168h-7.649a.168.168 0 0 0-.168.168v4.82c0 .092.076.168.168.168h6.628c.093 0 .168.075.168.168v.852a.168.168 0 0 1-.168.168h-6.628a.168.168 0 0 0-.168.168v5.122c0 .093.076.168.168.168h7.83c.092 0 .167.075.167.168M120.774 13.742l-2.668 6.456a.169.169 0 0 0 .156.232h5.262c.12 0 .201-.12.157-.231l-2.595-6.456a.169.169 0 0 0-.312-.001m-6.27 12.034l5.804-13.963a.17.17 0 0 1 .156-.104h.916c.068 0 .13.04.155.104l5.804 13.963a.168.168 0 0 1-.155.233h-1.137a.168.168 0 0 1-.155-.104l-1.755-4.263a.17.17 0 0 0-.156-.104h-6.158a.168.168 0 0 0-.156.104l-1.735 4.262a.168.168 0 0 1-.156.105h-1.116a.17.17 0 0 1-.156-.233M136.881 19.315c0 .093.075.168.168.168h4.495c.413 0 .79-.09 1.13-.272.341-.181.631-.426.871-.735.24-.308.427-.658.561-1.047a3.8 3.8 0 0 0 .2-1.23c0-.428-.077-.841-.23-1.237a3.43 3.43 0 0 0-.62-1.038 2.97 2.97 0 0 0-.922-.705 2.48 2.48 0 0 0-1.11-.261h-4.375a.168.168 0 0 0-.168.168v6.189zm-1.38 6.525V11.877c0-.093.074-.168.168-.168h5.815a3.73 3.73 0 0 1 1.701.393c.52.262.967.604 1.341 1.027.373.423.663.903.87 1.44.207.538.31 1.08.31 1.63 0 .525-.076 1.025-.23 1.502-.153.476-.37.906-.65 1.289-.28.382-.614.704-1 .967-.327.22-.686.38-1.077.483a.166.166 0 0 0-.097.25l3.21 5.06a.168.168 0 0 1-.142.259h-1.182a.168.168 0 0 1-.142-.078l-3.263-5.121a.167.167 0 0 0-.142-.078h-3.942a.168.168 0 0 0-.168.168v4.94a.169.169 0 0 1-.168.169h-1.044a.169.169 0 0 1-.169-.17z"/>
        <path fill="#A69FFF" d="M154.272 25.84V11.877c0-.093.076-.168.168-.168h2.946c.093 0 .168.075.168.168V25.84a.168.168 0 0 1-.168.168h-2.946a.168.168 0 0 1-.168-.168M176.936 14.61h-3.986a.168.168 0 0 0-.167.167V25.84a.168.168 0 0 1-.168.168h-2.947a.168.168 0 0 1-.168-.168V14.777a.168.168 0 0 0-.167-.168h-4.006a.168.168 0 0 1-.17-.168v-2.564c0-.093.075-.168.17-.168h11.61c.093 0 .167.075.167.168v2.564a.168.168 0 0 1-.168.168"/>
        <path fill="#FFF" d="M76.925 33.723c0 .093.076.168.168.168h1.58a.915.915 0 0 0 .75-.368 1.31 1.31 0 0 0 .211-.401 1.506 1.506 0 0 0-.012-.973 1.321 1.321 0 0 0-.237-.397 1.07 1.07 0 0 0-.628-.352.222.222 0 0 0-.037-.003h-1.627a.168.168 0 0 0-.168.168v2.158zm-.759 2.833v-5.667c0-.093.075-.168.168-.168h2.33c.264 0 .508.054.73.164.222.11.413.257.573.44.161.183.286.389.376.617.09.229.135.46.135.698 0 .248-.042.487-.126.718a1.992 1.992 0 0 1-.359.618c-.155.18-.34.324-.557.43a1.607 1.607 0 0 1-.72.162h-1.623a.168.168 0 0 0-.168.168v1.82a.168.168 0 0 1-.168.168h-.423a.168.168 0 0 1-.168-.168zM84.9 32.804a.17.17 0 0 1-.155.167 1.86 1.86 0 0 0-.827.277 1.468 1.468 0 0 0-.592.721.181.181 0 0 0-.011.065v2.521a.169.169 0 0 1-.17.168h-.405a.169.169 0 0 1-.17-.168v-4.077a.17.17 0 0 1 .17-.169h.355c.094 0 .169.076.169.17v.294c0 .156.193.228.294.11a1.99 1.99 0 0 1 .305-.29 1.48 1.48 0 0 1 .793-.317h.144c.039 0 .073.003.1.008v.52zM87.264 34.534c0 .23.038.445.114.643.076.197.18.369.312.515.132.147.287.262.464.347.177.084.367.127.57.127.203 0 .393-.043.57-.127.177-.085.333-.201.468-.351a1.62 1.62 0 0 0 .316-.524c.077-.2.115-.416.115-.647 0-.226-.038-.44-.115-.64a1.642 1.642 0 0 0-.316-.523 1.507 1.507 0 0 0-.468-.351 1.313 1.313 0 0 0-1.14.005 1.485 1.485 0 0 0-.464.355 1.684 1.684 0 0 0-.312.524c-.076.2-.114.416-.114.647m1.46 2.274a2.167 2.167 0 0 1-2.059-1.412 2.367 2.367 0 0 1-.16-.871 2.352 2.352 0 0 1 .62-1.606 2.162 2.162 0 0 1 1.6-.685 2.178 2.178 0 0 1 2.062 1.412c.11.276.165.569.165.879 0 .305-.053.595-.16.87a2.195 2.195 0 0 1-1.16 1.227 2.167 2.167 0 0 1-.908.186M93.121 32.31c.053 0 .104.025.135.068l1.157 1.556.067.135.076-.135 1.148-1.556a.168.168 0 0 1 .135-.068h.366c.138 0 .217.158.135.269l-1.37 1.846a.167.167 0 0 0 0 .2l1.375 1.83a.168.168 0 0 1-.134.269h-.364a.168.168 0 0 1-.135-.068l-1.156-1.547-.076-.127-.067.127-1.157 1.547a.167.167 0 0 1-.135.068h-.363a.168.168 0 0 1-.135-.27L94 34.627a.168.168 0 0 0 .001-.201l-1.37-1.846a.168.168 0 0 1 .134-.27h.357zM98.514 36.555v-4.077c0-.093.075-.169.168-.169h.407a.17.17 0 0 1 .168.17v4.076a.168.168 0 0 1-.168.168h-.407a.168.168 0 0 1-.168-.168m0-5.242v-.594c0-.093.075-.168.168-.168h.407c.092 0 .168.075.168.168v.594a.168.168 0 0 1-.168.168h-.407a.168.168 0 0 1-.168-.168M108.195 36.724h-.406a.168.168 0 0 1-.168-.168v-2.301c0-.462-.075-.803-.224-1.023-.149-.22-.37-.33-.662-.33-.305 0-.576.109-.815.325a1.789 1.789 0 0 0-.503.815.202.202 0 0 0-.008.054v2.46a.168.168 0 0 1-.168.168h-.406a.168.168 0 0 1-.168-.168v-2.301c0-.474-.074-.818-.22-1.032-.146-.214-.366-.321-.658-.321a1.2 1.2 0 0 0-.81.317 1.72 1.72 0 0 0-.508.815.193.193 0 0 0-.007.053v2.469a.168.168 0 0 1-.168.168h-.407a.168.168 0 0 1-.168-.168v-4.078c0-.092.076-.168.168-.168h.34c.092 0 .167.076.167.168v.252c0 .154.19.227.291.114a1.81 1.81 0 0 1 1.381-.61c.371 0 .665.1.881.3.133.122.234.266.305.432.05.119.211.145.288.04.376-.514.872-.772 1.488-.772.253 0 .465.046.637.139.172.094.308.223.41.39.1.166.174.36.22.587.044.226.066.47.066.736v2.47a.168.168 0 0 1-.168.168M110.786 36.555v-4.077c0-.093.075-.169.168-.169h.407a.17.17 0 0 1 .168.17v4.076a.168.168 0 0 1-.168.168h-.407a.168.168 0 0 1-.168-.168m0-5.242v-.594c0-.093.075-.168.168-.168h.407c.092 0 .168.075.168.168v.594a.168.168 0 0 1-.168.168h-.407a.168.168 0 0 1-.168-.168M116.272 36.504a3.728 3.728 0 0 1-.427.173 2.213 2.213 0 0 1-.303.076c-.11.02-.225.03-.343.03-.27 0-.502-.075-.7-.224-.197-.15-.295-.382-.295-.698v-2.8a.168.168 0 0 0-.168-.168h-.264a.168.168 0 0 1-.168-.168v-.247c0-.093.076-.168.168-.168h.263a.168.168 0 0 0 .169-.168v-1.135a.17.17 0 0 1 .169-.17h.405c.093 0 .168.077.168.17v1.135c0 .092.076.168.169.168h.65c.094 0 .17.075.17.168v.247a.169.169 0 0 1-.17.168h-.65a.168.168 0 0 0-.168.169v2.57c.011.164.064.283.16.356.096.073.207.11.338.11.146 0 .28-.024.4-.072l.08-.032a.167.167 0 0 1 .225.107l.121.403zM118.432 37.924a2.718 2.718 0 0 0 .388.034.358.358 0 0 0 .182-.047.505.505 0 0 0 .16-.18 3.23 3.23 0 0 0 .182-.378c.061-.147.137-.335.227-.565a.172.172 0 0 0 0-.128l-1.74-4.117a.169.169 0 0 1 .154-.234h.401a.17.17 0 0 1 .156.106l1.296 3.233a.168.168 0 0 0 .314-.006l1.176-3.222a.17.17 0 0 1 .16-.11h.345c.118 0 .2.118.157.228l-2.056 5.344c-.079.197-.21.37-.392.52-.183.15-.435.224-.756.224-.05 0-.102-.003-.156-.009a2.379 2.379 0 0 1-.198-.033v-.66zM123.985 37.408a.168.168 0 0 1-.164-.205l.122-.547h-.084a.168.168 0 0 1-.168-.168v-.543c0-.093.075-.169.168-.169h.364c.093 0 .168.076.168.17v.682a.17.17 0 0 1-.01.054l-.205.612a.168.168 0 0 1-.16.114h-.031zM130.197 36.555v-4.077c0-.093.075-.169.168-.169h.406a.17.17 0 0 1 .17.17v4.076a.169.169 0 0 1-.17.168h-.406a.168.168 0 0 1-.168-.168m0-5.242v-.594c0-.093.075-.168.168-.168h.406c.093 0 .17.075.17.168v.594a.169.169 0 0 1-.17.168h-.406a.168.168 0 0 1-.168-.168M137.06 36.724h-.407a.168.168 0 0 1-.168-.168v-2.301c0-.474-.071-.818-.215-1.032-.144-.214-.361-.321-.654-.321-.152 0-.304.03-.456.089a1.776 1.776 0 0 0-.785.604 1.57 1.57 0 0 0-.22.439.167.167 0 0 0-.008.055v2.467a.168.168 0 0 1-.168.168h-.406a.168.168 0 0 1-.168-.168v-4.078c0-.092.075-.168.168-.168h.339c.093 0 .168.076.168.168v.276c0 .149.182.226.286.119a2.151 2.151 0 0 1 1.546-.639c.252 0 .463.046.632.139.169.094.304.223.406.39.1.166.172.36.215.587.042.226.063.47.063.736v2.47a.168.168 0 0 1-.168.168M144.376 36.25c.264 0 .511-.049.738-.148.228-.099.401-.229.519-.393.107-.107.161-.217.161-.33v-.532a.167.167 0 0 0-.112-.16 3.032 3.032 0 0 0-1.011-.17c-.371 0-.673.079-.907.236-.233.158-.35.364-.35.618a.85.85 0 0 0 .071.346.85.85 0 0 0 .203.28 1.038 1.038 0 0 0 .688.253m-.194.558c-.208 0-.403-.035-.582-.106a1.429 1.429 0 0 1-.469-.291 1.371 1.371 0 0 1-.312-.436 1.295 1.295 0 0 1-.114-.545c0-.203.045-.388.135-.554.09-.167.218-.309.384-.427s.363-.212.591-.279c.228-.068.477-.102.747-.102.213 0 .43.02.649.06.132.023.254.052.367.085a.167.167 0 0 0 .216-.16v-.12c0-.361-.101-.644-.304-.85-.202-.205-.489-.308-.861-.308-.397 0-.811.137-1.243.411a.17.17 0 0 1-.243-.064l-.091-.178a.169.169 0 0 1 .06-.219c.526-.328 1.054-.492 1.585-.492.579 0 1.031.156 1.354.466.324.31.486.747.486 1.31v1.801c0 .131.044.215.132.251.06.024.104.074.104.138v.525l-.194.025a1.637 1.637 0 0 1-.161.008.47.47 0 0 1-.35-.131.54.54 0 0 1-.156-.317l-.017-.312a1.914 1.914 0 0 1-.747.604 2.29 2.29 0 0 1-.966.207M153.938 36.808c-.354 0-.703-.055-1.046-.165a2.607 2.607 0 0 1-.766-.383.166.166 0 0 1-.038-.223l.142-.22a.17.17 0 0 1 .24-.046c.211.146.422.26.633.34.258.098.531.147.818.147.321 0 .576-.063.764-.19a.609.609 0 0 0 .283-.537.49.49 0 0 0-.076-.275.641.641 0 0 0-.228-.198 1.824 1.824 0 0 0-.388-.152 12.13 12.13 0 0 0-.549-.144 11.773 11.773 0 0 1-.684-.195 1.856 1.856 0 0 1-.472-.219.766.766 0 0 1-.27-.305 1.024 1.024 0 0 1-.085-.44c0-.219.044-.416.131-.587.088-.172.207-.316.359-.432.152-.115.33-.203.536-.262.205-.059.426-.089.662-.089.332 0 .642.054.929.161.225.084.422.19.592.315a.169.169 0 0 1 .035.238l-.135.18a.166.166 0 0 1-.23.036 1.916 1.916 0 0 0-.499-.266 2.123 2.123 0 0 0-.709-.122c-.27 0-.499.057-.687.173-.189.115-.283.3-.283.554 0 .101.018.186.055.254a.481.481 0 0 0 .181.177c.084.051.193.096.325.135.132.04.292.082.477.127.293.068.547.137.764.207.216.071.396.154.54.25a.97.97 0 0 1 .321.338c.07.13.105.288.105.473 0 .412-.158.74-.473.981-.315.243-.739.364-1.274.364M161.484 36.724h-.406a.168.168 0 0 1-.17-.168v-2.301c0-.474-.07-.818-.214-1.032-.144-.214-.361-.321-.654-.321-.152 0-.304.03-.456.089a1.776 1.776 0 0 0-.785.604 1.57 1.57 0 0 0-.22.439.167.167 0 0 0-.008.055v2.467a.168.168 0 0 1-.168.168h-.406a.168.168 0 0 1-.168-.168v-4.078c0-.092.075-.168.168-.168h.339c.093 0 .168.076.168.168v.276c0 .149.182.226.286.119a2.151 2.151 0 0 1 1.546-.639c.252 0 .463.046.632.139.169.094.304.223.406.39.1.166.172.36.215.587.042.226.063.47.063.736v2.47a.168.168 0 0 1-.168.168M165.4 36.25c.263 0 .51-.049.737-.148.228-.099.401-.229.52-.393.106-.107.16-.217.16-.33v-.532a.167.167 0 0 0-.112-.16 3.036 3.036 0 0 0-1.01-.17c-.372 0-.675.079-.908.236-.234.158-.35.364-.35.618a.85.85 0 0 0 .071.346.85.85 0 0 0 .203.28 1.038 1.038 0 0 0 .688.253m-.194.558c-.208 0-.403-.035-.583-.106a1.39 1.39 0 0 1-.781-.727 1.31 1.31 0 0 1-.113-.545c0-.203.045-.388.135-.554.09-.167.218-.309.384-.427s.362-.212.59-.279c.23-.068.478-.102.748-.102.213 0 .43.02.65.06.13.023.252.052.366.085a.166.166 0 0 0 .215-.16v-.12c0-.361-.1-.644-.303-.85-.203-.205-.489-.308-.86-.308-.398 0-.812.137-1.244.411a.171.171 0 0 1-.244-.064l-.09-.178a.17.17 0 0 1 .06-.219c.525-.328 1.054-.492 1.584-.492.58 0 1.032.156 1.355.466.324.31.486.747.486 1.31v1.801c0 .131.044.215.132.251.06.024.103.074.103.138v.525a9.16 9.16 0 0 1-.193.025 1.637 1.637 0 0 1-.16.008.47.47 0 0 1-.35-.131.535.535 0 0 1-.157-.317l-.017-.312a1.914 1.914 0 0 1-.747.604 2.29 2.29 0 0 1-.966.207M171.925 36.148a1.332 1.332 0 0 0 .829-.122c.177-.092.33-.216.456-.372.127-.155.223-.332.291-.529.068-.197.101-.4.101-.608 0-.22-.039-.43-.118-.63a1.686 1.686 0 0 0-.32-.525 1.499 1.499 0 0 0-.477-.355 1.356 1.356 0 0 0-.595-.13c-.136 0-.275.026-.418.08a1.818 1.818 0 0 0-.405.212 1.415 1.415 0 0 0-.329.312.957.957 0 0 0-.177.362.17.17 0 0 0-.005.044v1.2c0 .025.005.05.015.073.06.134.133.259.221.376a1.614 1.614 0 0 0 .931.612m.462.66c-.366 0-.688-.09-.966-.27a2.049 2.049 0 0 1-.375-.307c-.104-.108-.288-.026-.288.123v2.002a.168.168 0 0 1-.168.169h-.406a.169.169 0 0 1-.169-.169v-5.878a.17.17 0 0 1 .17-.169h.321a.17.17 0 0 1 .168.17v.188c0 .151.181.221.29.115.115-.113.245-.213.39-.3.278-.166.586-.248.923-.248.304 0 .583.061.835.185.254.125.474.293.66.504a2.423 2.423 0 0 1 .591 1.594c0 .316-.049.612-.145.891-.095.28-.23.523-.405.727-.174.207-.383.37-.624.492a1.77 1.77 0 0 1-.802.181M176.48 36.555v-.61c0-.093.076-.169.169-.169h.287a.17.17 0 0 1 .17.17v.61a.169.169 0 0 1-.17.167h-.287a.168.168 0 0 1-.168-.168"/>
        <path stroke="#FFF" stroke-linecap="round" stroke-linejoin="round" stroke-width=".5" d="M195 18.163v10"/>
        <path fill="#A69FFF" d="M212.62 17.916c-1.01 0-1.83.82-1.831 1.831V27.439a1.831 1.831 0 1 0 3.663 0V19.747c0-1.011-.82-1.831-1.831-1.831M236 19.747a1.831 1.831 0 0 0-3.663 0V27.44a1.832 1.832 0 0 0 3.663 0V19.747zM215.199 18.236h-.091v12.072c0 1.008.824 1.832 1.832 1.832h1.543v4.207a1.831 1.831 0 0 0 3.662 0V32.14h2.499v4.207a1.833 1.833 0 0 0 3.663 0V32.14h1.543a1.837 1.837 0 0 0 1.83-1.832V18.236H215.2zM219.625 13.108a.778.778 0 1 1 0 1.557.778.778 0 0 1 0-1.557zm7.539 0a.778.778 0 1 1 0 1.557.778.778 0 0 1 0-1.557zm4.502 4.487v-.883a6.7 6.7 0 0 0-.113-.74c-.453-2.148-1.952-3.967-4.007-5.023l1.265-2.332a.299.299 0 0 0-.524-.284l-1.28 2.362a9.095 9.095 0 0 0-3.597-.73 9.104 9.104 0 0 0-3.622.74l-1.286-2.372a.298.298 0 0 0-.523.284l1.271 2.345c-1.959 1.014-3.409 2.723-3.923 4.748a6.642 6.642 0 0 0-.199 1.885h16.538z"/>
    </g>
</svg>
